<svg xmlns="http://www.w3.org/2000/svg" width="725" height="291" fill="none" viewBox="0 0 725 291">
  <g clip-path="url(#clip0)" opacity=".3">
    <path fill="url(#paint0_radial)" d="M355.181 206.991a8.06 8.06 0 007.903 6.454c4.447 0 8.056-3.608 8.056-8.053a8.058 8.058 0 00-8.056-8.054 8.05 8.05 0 00-8.046 7.835H236.87l-25.138 25.131h-67.806l-33.908-33.899H36.184c-.486-3.988-3.876-7.082-7.999-7.082-4.447 0-8.055 3.608-8.055 8.053a8.058 8.058 0 008.055 8.054 8.052 8.052 0 008.008-7.197h73.044l33.908 33.899h69.33L237.613 207h117.568v-.009z"/>
    <path fill="url(#paint1_radial)" d="M693.623 225.335a8.057 8.057 0 0016.063-.914 8.057 8.057 0 00-16.063-.914h-71.549l-23.31 23.304H494.46l-14.635 14.631h-45.144a8.06 8.06 0 00-8.008-7.139c-4.447 0-8.056 3.607-8.056 8.053 0 4.446 3.609 8.053 8.056 8.053a8.06 8.06 0 008.008-7.139h45.905l14.636-14.632h104.313l23.31-23.303h70.778z"/>
    <path fill="url(#paint2_radial)" d="M42.83 84.809a8.057 8.057 0 008.056-8.054 7.998 7.998 0 00-1.752-5.007L68.187 52.7h48.991a8.06 8.06 0 008.008 7.14c4.447 0 8.056-3.609 8.056-8.054 0-4.446-3.609-8.054-8.056-8.054a8.06 8.06 0 00-8.008 7.14H67.425L47.84 70.444a8.024 8.024 0 00-5.009-1.752 8.057 8.057 0 00-8.056 8.054c0 4.455 3.6 8.063 8.056 8.063z"/>
    <path fill="url(#paint3_radial)" d="M26.71 101.696c4.122 0 7.512-3.094 7.998-7.082h75.3l33.908-33.899h67.806l25.138 25.131h118.235a8.054 8.054 0 007.989 7.026c4.447 0 8.056-3.608 8.056-8.054 0-4.445-3.609-8.053-8.056-8.053-4.18 0-7.617 3.189-8.017 7.263H237.613l-25.139-25.131h-69.329l-33.908 33.899h-74.51a8.052 8.052 0 00-8.008-7.197 8.057 8.057 0 00-8.056 8.053c-.01 4.446 3.6 8.044 8.046 8.044z"/>
    <path fill="url(#paint4_radial)" d="M125.177 231.161a8.06 8.06 0 00-8.008 7.139H68.187l-19.053-19.039a8.016 8.016 0 001.752-5.007c0-4.445-3.61-8.053-8.056-8.053-4.447 0-8.056 3.608-8.056 8.053a8.058 8.058 0 008.056 8.054 8.002 8.002 0 005.009-1.752l19.586 19.582h49.753a8.06 8.06 0 008.008 7.139c4.447 0 8.056-3.608 8.056-8.053a8.067 8.067 0 00-8.065-8.063z"/>
    <path fill="url(#paint5_radial)" d="M275.234 231.161a8.06 8.06 0 00-8.008 7.139h-35.231a8.06 8.06 0 00-8.008-7.139c-4.447 0-8.056 3.608-8.056 8.053a8.058 8.058 0 0016.064.914h35.231a8.058 8.058 0 0016.064-.914c0-4.445-3.6-8.053-8.056-8.053z"/>
    <path fill="url(#paint6_radial)" d="M426.673 36.697a8.06 8.06 0 008.008-7.14h45.144L494.46 44.19h104.314l23.3 23.304h71.549a8.057 8.057 0 0016.063-.914 8.057 8.057 0 00-16.063-.914h-70.787l-23.31-23.304H495.222l-14.645-14.64h-45.906a8.06 8.06 0 00-8.008-7.14c-4.447 0-8.056 3.608-8.056 8.053a8.062 8.062 0 008.066 8.063z"/>
    <path fill="url(#paint7_radial)" d="M805.935 219.566c-4.123 0-7.513 3.094-7.999 7.092h-52.904l-30.223-30.215H614.38l-23.843 23.837H440.479l-27.452 27.445H303.981l-23.672-23.666a8.017 8.017 0 002.076-5.378 8.058 8.058 0 00-8.055-8.054 8.058 8.058 0 00-8.056 8.054c0 4.445 3.609 8.053 8.056 8.053a8.041 8.041 0 004.618-1.456l24.281 24.274h110.56l27.452-27.444h150.058l23.843-23.837h98.915l30.223 30.215h53.647a8.058 8.058 0 008.008 7.196 8.056 8.056 0 008.055-8.053c0-4.446-3.599-8.063-8.055-8.063z"/>
    <path fill="url(#paint8_radial)" d="M805.935 274.884a8.06 8.06 0 00-8.008 7.139H639.328l-14.664-14.66a8.018 8.018 0 001.752-5.007 8.058 8.058 0 00-8.056-8.054 8.058 8.058 0 00-8.055 8.054 8.057 8.057 0 008.055 8.053 8.002 8.002 0 005.009-1.751l15.197 15.193h159.361a8.057 8.057 0 0016.063-.914c.01-4.446-3.599-8.053-8.055-8.053z"/>
    <path fill="url(#paint9_radial)" d="M805.935 189.237a8.06 8.06 0 00-8.008 7.14h-35.422l-26.652-26.645H572.921l-19.901 19.895H111.379l-20.587-20.581H55.41a8.06 8.06 0 00-8.008-7.139c-4.447 0-8.056 3.608-8.056 8.053a8.058 8.058 0 0016.064.914H90.03l20.586 20.581h443.155l19.901-19.896H735.1l26.653 26.645h36.183a8.06 8.06 0 008.008 7.14c4.447 0 8.056-3.608 8.056-8.053 0-4.446-3.609-8.054-8.065-8.054z"/>
    <path fill="url(#paint10_radial)" d="M805.935 139.041c-3.818 0-7.008 2.656-7.846 6.226H15.902a8.048 8.048 0 00-7.846-6.226A8.058 8.058 0 000 147.095c0 4.445 3.609 8.053 8.056 8.053 3.818 0 7.008-2.656 7.846-6.226h782.196a8.05 8.05 0 007.846 6.226c4.447 0 8.056-3.608 8.056-8.053 0-4.446-3.609-8.054-8.065-8.054z"/>
    <path fill="url(#paint11_radial)" d="M805.935 85.647a8.06 8.06 0 00-8.008 7.14h-36.184L735.1 119.43H573.683l-19.901-19.896H110.627L90.04 120.116H55.41a8.06 8.06 0 00-8.008-7.139c-4.447 0-8.056 3.608-8.056 8.053a8.058 8.058 0 0016.064.914h35.384l20.586-20.581H553.02l19.901 19.896h162.941l26.652-26.645h35.422a8.06 8.06 0 008.008 7.139c4.447 0 8.056-3.608 8.056-8.053 0-4.446-3.609-8.053-8.065-8.053z"/>
    <path fill="url(#paint12_radial)" d="M805.935 55.003c-4.266 0-7.751 3.323-8.037 7.511H744.27L714.057 92.73h-98.915l-23.843-23.837H441.232L413.78 41.448H303.229l-24.281 24.274a8.021 8.021 0 00-4.618-1.456c-4.447 0-8.056 3.608-8.056 8.053 0 4.446 3.609 8.054 8.056 8.054a8.057 8.057 0 008.055-8.054c0-2.075-.79-3.95-2.076-5.378l23.672-23.666h109.046l27.452 27.445h150.058l23.843 23.837h100.439l30.222-30.215h52.952c.619 3.836 3.933 6.768 7.951 6.768 4.447 0 8.056-3.608 8.056-8.053 0-4.446-3.609-8.054-8.065-8.054z"/>
    <path fill="url(#paint13_radial)" d="M618.361 36.697a8.057 8.057 0 008.055-8.053 7.999 7.999 0 00-1.752-5.007l14.664-14.66h158.608A8.057 8.057 0 00814 8.063a8.057 8.057 0 00-16.064-.914h-159.36l-15.197 15.193a8.025 8.025 0 00-5.009-1.751c-4.447 0-8.056 3.607-8.056 8.053-.009 4.446 3.6 8.053 8.047 8.053z"/>
    <path fill="url(#paint14_radial)" d="M221.254 59.84a8.06 8.06 0 008.008-7.14h37.06a8.057 8.057 0 0016.063-.914 8.057 8.057 0 00-16.063-.914h-37.06a8.06 8.06 0 00-8.008-7.14c-4.447 0-8.056 3.608-8.056 8.054 0 4.445 3.609 8.053 8.056 8.053z"/>
  </g>
  <defs>
    <radialGradient id="paint0_radial" cx="0" cy="0" r="1" gradientTransform="matrix(3520.55 0 0 1843.83 -717.364 -68.989)" gradientUnits="userSpaceOnUse">
      <stop stop-color="#C3CBD1"/>
      <stop offset="1" stop-color="#919DA4"/>
    </radialGradient>
    <radialGradient id="paint1_radial" cx="0" cy="0" r="1" gradientTransform="matrix(2919.35 0 0 2327.64 -192.936 -109.724)" gradientUnits="userSpaceOnUse">
      <stop stop-color="#C3CBD1"/>
      <stop offset="1" stop-color="#919DA4"/>
    </radialGradient>
    <radialGradient id="paint2_radial" cx="0" cy="0" r="1" gradientTransform="matrix(987.602 0 0 1769.2 -172.111 -204.125)" gradientUnits="userSpaceOnUse">
      <stop stop-color="#C3CBD1"/>
      <stop offset="1" stop-color="#919DA4"/>
    </radialGradient>
    <radialGradient id="paint3_radial" cx="0" cy="0" r="1" gradientTransform="matrix(3535.25 0 0 1843.42 -721.911 -199.357)" gradientUnits="userSpaceOnUse">
      <stop stop-color="#C3CBD1"/>
      <stop offset="1" stop-color="#919DA4"/>
    </radialGradient>
    <radialGradient id="paint4_radial" cx="0" cy="0" r="1" gradientTransform="matrix(987.602 0 0 1769.2 -172.111 -41.656)" gradientUnits="userSpaceOnUse">
      <stop stop-color="#C3CBD1"/>
      <stop offset="1" stop-color="#919DA4"/>
    </radialGradient>
    <radialGradient id="paint5_radial" cx="0" cy="0" r="1" gradientTransform="matrix(675.592 0 0 693.74 74.406 133.971)" gradientUnits="userSpaceOnUse">
      <stop stop-color="#C3CBD1"/>
      <stop offset="1" stop-color="#919DA4"/>
    </radialGradient>
    <radialGradient id="paint6_radial" cx="0" cy="0" r="1" gradientTransform="matrix(2919.45 0 0 2328.05 -192.966 -305.568)" gradientUnits="userSpaceOnUse">
      <stop stop-color="#C3CBD1"/>
      <stop offset="1" stop-color="#919DA4"/>
    </radialGradient>
    <radialGradient id="paint7_radial" cx="0" cy="0" r="1" gradientTransform="matrix(5493.46 0 0 2287.46 -884.51 -124.019)" gradientUnits="userSpaceOnUse">
      <stop stop-color="#C3CBD1"/>
      <stop offset="1" stop-color="#919DA4"/>
    </radialGradient>
    <radialGradient id="paint8_radial" cx="0" cy="0" r="1" gradientTransform="matrix(2042.92 0 0 1580.19 182.35 32.926)" gradientUnits="userSpaceOnUse">
      <stop stop-color="#C3CBD1"/>
      <stop offset="1" stop-color="#919DA4"/>
    </radialGradient>
    <radialGradient id="paint9_radial" cx="0" cy="0" r="1" gradientTransform="matrix(7769.59 0 0 1870.89 -1588.25 -100.196)" gradientUnits="userSpaceOnUse">
      <stop stop-color="#C3CBD1"/>
      <stop offset="1" stop-color="#919DA4"/>
    </radialGradient>
    <radialGradient id="paint10_radial" cx="0" cy="0" r="1" gradientTransform="matrix(8164.21 0 0 693.741 -1710.26 41.851)" gradientUnits="userSpaceOnUse">
      <stop stop-color="#C3CBD1"/>
      <stop offset="1" stop-color="#919DA4"/>
    </radialGradient>
    <radialGradient id="paint11_radial" cx="0" cy="0" r="1" gradientTransform="matrix(7769.59 0 0 1870.89 -1588.25 -176.456)" gradientUnits="userSpaceOnUse">
      <stop stop-color="#C3CBD1"/>
      <stop offset="1" stop-color="#919DA4"/>
    </radialGradient>
    <radialGradient id="paint12_radial" cx="0" cy="0" r="1" gradientTransform="matrix(5493.55 0 0 2287.46 -884.53 -279.015)" gradientUnits="userSpaceOnUse">
      <stop stop-color="#C3CBD1"/>
      <stop offset="1" stop-color="#919DA4"/>
    </radialGradient>
    <radialGradient id="paint13_radial" cx="0" cy="0" r="1" gradientTransform="matrix(2042.92 0 0 1580.19 182.359 -221.367)" gradientUnits="userSpaceOnUse">
      <stop stop-color="#C3CBD1"/>
      <stop offset="1" stop-color="#919DA4"/>
    </radialGradient>
    <radialGradient id="paint14_radial" cx="0" cy="0" r="1" gradientTransform="matrix(693.929 0 0 693.741 67.832 -53.458)" gradientUnits="userSpaceOnUse">
      <stop stop-color="#C3CBD1"/>
      <stop offset="1" stop-color="#919DA4"/>
    </radialGradient>
    <clipPath id="clip0">
      <path fill="#fff" d="M0 0h814v291H0z"/>
    </clipPath>
  </defs>
</svg>
