<svg xmlns="http://www.w3.org/2000/svg" width="23" height="26" fill="none" viewBox="0 0 23 26">
  <path fill="#333334" d="M10.256 0a.8.8 0 00-.314.063C4.44.243 0 4.743 0 10.32a10.364 10.364 0 002.58 6.823v8.04a.809.809 0 00.804.814H14.125a.812.812 0 00.805-.815v-4.209h4.799a.812.812 0 00.805-.815v-3.173l1.664-.01a.81.81 0 00.666-1.266s-.6-.894-1.198-1.973a16.336 16.336 0 01-.81-1.638c-.215-.517-.328-.992-.328-1.158-.002-.245-.013-.44-.01-.604v-.013C20.515 4.629 15.913 0 10.256 0zm-.773 4.304h1.615v1.269c.592.113 1.143.35 1.625.683l.325-.324.571-.575 1.138 1.15-.572.57-.322.326c.33.486.563 1.04.679 1.636H15.8v1.627h-1.258a4.32 4.32 0 01-.68 1.635l.895.9-1.138 1.152-.899-.905a4.31 4.31 0 01-1.622.68V15.4H9.483V14.13a4.274 4.274 0 01-1.625-.678l-.894.9-1.137-1.153.566-.575.325-.325a4.334 4.334 0 01-.676-1.635H4.773V9.036h1.263c.113-.596.349-1.15.677-1.633l-.894-.899 1.137-1.15.894.9a4.278 4.278 0 011.625-.681v-.459l.008-.81zm.805 2.814c-.726 0-1.376.288-1.861.747l-.113.116a2.729 2.729 0 00-.008 3.732l.129.13a2.703 2.703 0 003.725-.016l.096-.098a2.718 2.718 0 00.747-1.878c0-.736-.288-1.398-.755-1.889l-.084-.084a2.69 2.69 0 00-1.876-.76z"/>
</svg>
