<svg xmlns="http://www.w3.org/2000/svg" width="24" height="25" fill="none" viewBox="0 0 24 25">
  <path fill="#333334" d="M20.878 12.5v-.01c3.232-4.776 4.023-8.954 2.056-10.922C20.961-.406 16.782.385 12.004 3.62h-.01A24.763 24.763 0 009.66 2.214c.016-.1.032-.198.032-.303A1.912 1.912 0 007.783 0a1.92 1.92 0 00-1.567.823C3.94.224 2.166.474 1.073 1.568-.894 3.536-.108 7.714 3.124 12.484v.037c-3.232 4.77-4.023 8.942-2.05 10.916.718.72 1.727 1.068 2.956 1.068 2.139 0 4.929-1.067 7.963-3.125h.016c.786.532 1.546.99 2.274 1.375-.02.11-.036.224-.036.339a1.908 1.908 0 003.482 1.073c.822.218 1.582.338 2.264.338 1.229 0 2.228-.36 2.941-1.067 1.967-1.97 1.176-6.146-2.056-10.928v-.01zm1.317-10.198c1.41 1.412.801 4.74-1.483 8.51a8.886 8.886 0 00-7.027-7.026c3.768-2.286 7.1-2.895 8.51-1.484zm-20.388 0c.796-.797 2.238-.958 4.08-.49a.577.577 0 00-.01.1c0 1.052.854 1.906 1.905 1.906a1.88 1.88 0 001.437-.662c.364.193.729.401 1.103.63a8.9 8.9 0 00-7.031 7.021C1.01 7.042.397 3.714 1.807 2.302zm0 20.396c-1.41-1.412-.796-4.74 1.489-8.51a8.833 8.833 0 007.026 7.025c-3.768 2.282-7.1 2.896-8.515 1.485zm10.197-2.36c-4.263 0-7.839-3.447-7.839-7.838 0-4.323 3.518-7.839 7.839-7.839 4.32 0 7.833 3.516 7.833 7.839 0 4.453-3.623 7.838-7.833 7.838zm10.19 2.36c-.806.807-2.268.969-4.137.474 0-.026.005-.052.005-.078a1.908 1.908 0 00-1.905-1.912c-.562 0-1.067.25-1.416.64a20.813 20.813 0 01-1.056-.608c3.409-.641 6.329-3.334 7.032-7.021 2.274 3.77 2.888 7.099 1.478 8.505z"/>
  <path fill="#333334" d="M9.15 9.964c0-1.62 1.296-2.933 2.889-2.933 1.593 0 2.889 1.313 2.889 2.933 0 1.645-1.291 3.635-2.889 3.635-1.603 0-2.889-1.99-2.889-3.635zM17.483 16.526c-1.228 1.651-3.2 2.77-5.48 2.77a6.812 6.812 0 01-5.43-2.707 5.212 5.212 0 014.467-2.552h2.014c1.832 0 3.513.958 4.43 2.489z"/>
</svg>
